# xmcd CD database file
#
# Track frame offsets:
#	182
#	13227
#	25372
#	40107
#	59597
#	74945
#	91580
#	106170
#	124382
#	141630
#
# Disc length: 2074 seconds
#
# Revision: 2
# Processed by: cddbd v1.5.2PL0 Copyright (c) Steve Scherf et al.
# Submitted via: CDex 1.70beta2
#
DISCID=9708180a
DTITLE=Kenny Rogers - Ten Years of Gold
DYEAR=1977
DGENRE=Country
TTITLE0=Ruby, Don't Take Your Love To Town
TTITLE1=Reuben James
TTITLE2=But You Know I Love You
TTITLE3=Something's Burning
TTITLE4=Just Dropped In
TTITLE5=Lucille
TTITLE6=Daytime Friends
TTITLE7=While The Feeling's Good
TTITLE8=Love Lifted Me
TTITLE9=Today I Started Loving You Again
EXTD=YEAR: 1977
EXTT0=
EXTT1=
EXTT2=
EXTT3=
EXTT4=
EXTT5=
EXTT6=
EXTT7=
EXTT8=
EXTT9=
PLAYORDER=
